<?xml version="1.0" standalone="no"?>
<!DOCTYPE svg PUBLIC "-//W3C//DTD SVG 20010904//EN"
 "http://www.w3.org/TR/2001/REC-SVG-20010904/DTD/svg10.dtd">
<svg version="1.0" xmlns="http://www.w3.org/2000/svg"
 width="1563.000000pt" height="1563.000000pt" viewBox="0 0 1563.000000 1563.000000"
 preserveAspectRatio="xMidYMid meet">

<g transform="translate(0.000000,1563.000000) scale(0.100000,-0.100000)"
fill="#000000" stroke="none">
<path d="M5863 12319 c-99 -12 -256 -61 -453 -139 -51 -20 -53 -20 -37 -2 20
22 22 39 5 44 -31 11 -115 -18 -255 -87 -83 -41 -155 -75 -159 -75 -4 0 -18
10 -31 22 l-23 21 -47 -33 c-103 -72 -282 -222 -355 -297 -62 -65 -79 -89 -92
-133 -20 -70 -36 -217 -36 -341 0 -93 -1 -96 -26 -107 -90 -42 -611 -417 -914
-659 -114 -92 -124 -103 -430 -463 -115 -135 -249 -285 -299 -334 -89 -88 -91
-90 -135 -87 -131 6 -236 -85 -236 -206 0 -39 -7 -57 -36 -98 -46 -64 -76
-123 -69 -134 3 -5 28 -12 57 -16 29 -4 72 -16 96 -26 l44 -19 -41 -41 c-39
-40 -44 -41 -89 -36 -59 6 -82 -5 -82 -42 0 -50 129 -165 276 -247 42 -24 107
-79 196 -168 299 -299 615 -496 1105 -690 226 -89 592 -193 868 -246 61 -11
123 -23 138 -26 27 -6 34 -15 51 -71 7 -20 4 -23 -23 -23 l-31 0 0 -165 0
-165 85 0 86 0 19 -42 c19 -41 20 -73 20 -710 l0 -668 175 0 175 0 2 465 3
465 60 -45 c33 -24 97 -66 142 -92 l82 -48 1 -372 0 -373 170 0 170 0 0 303 0
304 70 -15 70 -15 0 -289 0 -288 355 0 355 0 0 150 0 150 -180 0 -180 0 0 391
0 391 58 -4 c68 -6 98 3 113 36 19 42 3 70 -71 125 -38 29 -76 62 -85 74 -12
17 -15 58 -15 218 l0 196 158 7 c162 7 534 33 564 40 10 2 22 -2 29 -10 10
-12 -3 -14 -80 -14 -65 0 -91 -3 -91 -12 0 -18 -159 -1668 -164 -1705 l-5 -33
169 0 c152 0 169 2 174 18 2 9 8 72 11 140 l7 122 108 0 107 0 7 -87 c4 -49
10 -112 13 -140 l6 -53 163 0 164 0 0 28 c-1 15 -32 342 -69 727 -37 385 -67
701 -65 703 1 2 40 -8 85 -21 46 -14 100 -29 119 -34 l35 -9 3 -697 2 -697
170 0 170 0 0 345 0 345 78 0 c169 0 278 38 337 116 62 81 99 257 93 442 -3
92 -1 102 14 102 10 0 31 18 47 40 15 21 31 36 35 33 3 -3 6 -325 6 -715 l0
-708 165 0 165 0 0 705 0 704 33 5 c96 13 201 25 202 23 1 -1 -28 -317 -66
-702 -37 -385 -68 -708 -69 -717 0 -16 15 -18 169 -18 l169 0 6 93 c4 50 9
113 12 140 l6 47 104 0 c57 0 104 -3 105 -7 0 -5 6 -66 12 -138 l12 -130 168
-3 167 -2 -5 37 c-10 68 -155 1621 -155 1655 0 33 0 33 146 97 l145 64 -98 49
c-171 86 -294 192 -367 317 -20 35 -72 137 -115 226 -79 163 -135 257 -199
327 -19 21 -33 40 -31 43 10 10 185 55 214 55 17 0 58 -9 90 -20 141 -49 493
-263 688 -418 293 -234 590 -412 777 -466 109 -31 268 -50 345 -41 198 22 299
172 297 441 -1 115 -19 210 -67 364 -18 58 -45 161 -60 226 l-27 120 26 375
c41 605 47 759 36 906 -6 73 -16 161 -23 196 -11 51 -11 78 -1 147 39 257 -8
478 -121 578 -77 68 -105 77 -235 77 -246 0 -443 -84 -765 -325 -149 -112
-259 -212 -480 -435 -161 -163 -232 -226 -303 -273 -51 -34 -99 -62 -105 -62
-66 0 -349 65 -400 92 -16 8 -12 13 30 35 84 44 211 132 306 212 161 137 358
395 470 617 45 90 130 203 241 321 81 85 85 92 64 99 -13 4 -184 39 -380 79
-335 67 -359 73 -383 99 -23 25 -30 28 -63 20 -63 -13 -151 -9 -292 14 -74 13
-210 27 -302 32 -272 15 -394 38 -614 115 -128 44 -251 76 -449 115 -221 44
-204 35 -180 92 8 21 -12 30 -125 58 -80 20 -200 35 -372 46 l-107 7 19 37 19
37 -67 12 c-38 7 -201 15 -374 18 l-306 6 -18 38 -17 39 -91 0 c-94 0 -301
-27 -419 -54 -97 -23 -96 -23 -94 25 1 23 -2 43 -8 44 -5 1 -38 -1 -72 -6z
m1072 -319 c295 -27 699 -116 1230 -270 666 -193 840 -232 1127 -250 83 -5
153 -12 156 -14 8 -8 -112 -148 -199 -232 -212 -205 -422 -303 -584 -273 -52
9 -172 53 -188 68 -13 13 149 71 311 112 168 43 279 83 360 130 62 35 63 46 3
24 -74 -26 -232 -63 -365 -85 -150 -25 -231 -48 -337 -97 l-76 -35 -99 50
c-55 27 -121 57 -147 67 -27 10 -44 22 -39 27 16 16 207 80 327 108 66 16 183
38 260 50 77 12 151 24 164 26 49 10 8 16 -106 16 -253 0 -491 -46 -700 -134
l-72 -30 -128 36 c-70 19 -145 38 -165 42 -21 3 -38 9 -38 13 0 9 114 53 235
90 120 36 272 67 381 77 121 11 130 20 24 28 -203 14 -455 -31 -692 -124
l-106 -42 -158 27 c-88 14 -163 27 -169 29 -18 5 198 104 307 141 120 40 259
71 363 82 l70 7 -45 7 c-25 4 -101 3 -170 -2 -198 -15 -395 -72 -574 -167
l-91 -48 -160 22 c-88 13 -167 23 -175 24 -22 1 8 22 115 80 161 87 289 131
580 199 l40 9 -57 1 c-198 4 -567 -113 -770 -243 l-57 -36 -171 2 c-93 2 -170
4 -170 4 0 1 42 29 93 62 180 117 379 203 569 247 l63 15 -80 -6 c-212 -14
-472 -111 -689 -258 l-95 -64 -131 -12 c-72 -7 -133 -10 -136 -7 -7 7 123 112
223 180 86 58 182 107 316 159 43 16 76 32 73 35 -8 9 -134 -18 -216 -45 -164
-54 -341 -163 -496 -304 l-57 -53 -126 -22 c-69 -12 -128 -20 -130 -17 -2 2
36 44 85 92 105 102 221 183 360 249 122 58 101 69 -41 22 -164 -55 -322 -162
-473 -325 -76 -80 -78 -82 -152 -99 -41 -10 -108 -28 -147 -41 -40 -12 -73
-20 -73 -17 0 18 81 116 174 209 210 209 412 316 766 404 254 63 455 87 750
89 118 0 265 -4 325 -9z m-197 -827 c16 -43 37 -105 47 -138 l17 -60 -38 -31
-37 -32 -66 36 c-36 20 -78 43 -93 52 l-28 17 78 84 c65 70 70 78 32 49 -25
-19 -67 -53 -93 -76 l-48 -43 -69 32 c-74 34 -73 30 -15 72 11 8 -2 5 -28 -7
-36 -17 -52 -20 -64 -12 -15 9 -50 92 -52 122 -1 9 48 12 213 12 l215 0 29
-77z m-511 -23 c18 -47 32 -90 33 -96 0 -6 -18 -25 -41 -44 l-41 -33 -91 48
c-51 27 -94 50 -96 52 -3 2 9 17 25 34 l29 32 -42 -26 c-40 -25 -43 -26 -77
-12 -43 18 -48 12 -7 -9 l29 -15 -81 -80 c-79 -77 -82 -79 -107 -66 -30 16
-93 112 -79 120 5 4 9 11 9 17 0 7 -4 7 -13 -1 -11 -8 -24 3 -60 54 -26 36
-47 67 -47 69 0 11 421 44 540 42 l85 -1 32 -85z m946 63 c151 -18 150 -17
160 -90 6 -47 -9 -61 -46 -41 -20 10 -21 10 -8 -6 8 -9 12 -18 10 -19 -2 -1
-45 -30 -96 -65 -50 -34 -94 -62 -97 -62 -5 0 -107 58 -155 88 l-25 15 45 39
44 40 -40 -23 c-22 -13 -48 -28 -58 -33 -29 -18 -49 5 -79 95 -15 46 -28 86
-28 88 0 7 232 -9 373 -26z m-1662 -75 c46 -57 89 -117 89 -123 0 -3 -17 2
-37 11 -65 27 -83 34 -83 29 0 -3 23 -16 51 -30 l50 -26 -60 -62 c-33 -35 -66
-71 -74 -80 -12 -17 -18 -17 -120 13 -60 18 -111 29 -114 26 -4 -3 -1 -6 6 -6
13 0 159 -56 179 -69 10 -6 3 -26 -34 -87 -26 -43 -50 -83 -54 -87 -4 -4 -46
4 -95 18 -48 14 -90 24 -92 22 -1 -2 36 -18 83 -36 68 -26 85 -36 81 -49 -6
-19 -54 -149 -64 -172 -9 -22 -11 -30 -17 -80 l-6 -45 21 43 20 43 52 -38 c29
-20 62 -44 73 -53 l22 -15 -24 -54 c-30 -68 -24 -77 11 -17 15 25 31 46 36 46
14 0 159 -111 159 -122 0 -5 -11 -31 -25 -58 -36 -71 -31 -74 13 -8 l38 57 71
-53 72 -52 -35 -64 c-18 -35 -32 -65 -31 -67 2 -2 21 22 42 52 20 30 42 55 47
55 5 0 34 -19 63 -42 61 -47 62 -36 -12 -150 -25 -38 -43 -71 -41 -73 2 -2 32
32 67 77 l64 80 23 -60 c12 -33 30 -72 39 -85 16 -24 15 -27 -18 -74 -59 -82
-75 -114 -36 -68 90 106 84 101 114 85 16 -8 54 -15 87 -15 32 0 58 -2 58 -5
0 -3 -15 -23 -33 -46 -97 -121 -99 -128 -19 -50 l81 79 59 -51 c85 -74 87 -77
69 -106 -14 -20 -27 -25 -89 -31 -269 -25 -480 -96 -599 -203 -93 -83 -146
-251 -120 -378 56 -282 412 -472 943 -503 292 -17 512 20 668 114 100 60 342
191 544 294 214 109 226 116 226 137 0 51 -314 245 -557 343 -189 76 -462 153
-627 176 l-49 7 44 44 c24 24 46 44 49 44 3 0 34 -26 70 -57 69 -61 65 -49 -9
30 l-45 47 89 90 c49 50 94 90 100 90 5 0 46 -34 90 -74 l80 -73 -50 -59 c-82
-99 -83 -101 -4 -31 l77 67 73 -67 c73 -66 66 -52 -19 38 l-43 45 87 79 86 78
74 -74 c41 -40 74 -78 74 -83 0 -5 -17 -32 -38 -60 -60 -80 -59 -85 5 -23 l60
59 65 -74 c36 -40 80 -89 98 -108 31 -34 31 -33 -6 20 -21 30 -59 83 -86 117
-26 35 -48 64 -48 66 0 1 38 37 84 79 l83 77 73 -80 73 -80 -34 -37 c-19 -20
-46 -50 -59 -67 -28 -33 -17 -26 62 38 26 21 52 37 57 35 5 -1 46 -45 90 -96
45 -52 81 -91 81 -87 0 3 -34 51 -76 106 -42 56 -72 105 -68 109 5 5 45 38 89
75 l80 66 62 -68 c34 -37 62 -73 63 -78 0 -6 -22 -33 -50 -60 -27 -27 -48 -51
-46 -53 3 -2 29 15 60 37 30 23 59 41 63 41 4 -1 33 -32 63 -70 30 -39 57 -70
59 -70 4 0 -22 41 -65 103 -19 26 -34 50 -34 55 1 6 86 74 149 120 17 12 24 5
76 -63 l57 -76 -33 -41 c-33 -41 -29 -42 24 -5 16 10 29 18 31 16 2 -2 22 -32
45 -66 23 -35 44 -63 47 -63 6 0 -51 104 -69 128 -5 7 -8 14 -6 16 3 3 142
112 175 138 8 5 29 -14 63 -58 28 -37 51 -71 51 -76 0 -5 -11 -24 -25 -42 -31
-41 -32 -56 -2 -30 54 48 51 49 96 -16 23 -33 44 -60 46 -60 3 0 -11 26 -30
58 -18 32 -35 63 -37 69 -3 10 156 143 170 143 4 0 28 -33 54 -72 46 -71 47
-73 29 -93 -10 -11 -27 -33 -37 -50 -21 -32 -14 -30 44 12 18 14 35 23 36 22
2 -2 17 -24 35 -48 38 -54 40 -46 5 15 -15 25 -25 46 -23 48 2 1 46 33 98 69
l94 67 61 -90 c33 -49 62 -87 64 -85 2 2 -17 48 -42 101 l-47 98 43 38 43 38
-54 -20 c-30 -11 -56 -19 -56 -17 -1 1 -25 37 -54 80 l-52 77 28 26 c22 20 23
24 8 19 -54 -20 -58 -18 -125 72 -36 49 -64 94 -64 100 1 7 -2 10 -7 7 -15 -9
-10 5 17 46 l26 39 71 -36 c90 -45 277 -107 387 -127 46 -9 146 -23 222 -31
155 -16 238 -35 316 -72 160 -75 238 -200 279 -444 32 -198 -15 -371 -129
-474 -98 -88 -181 -118 -407 -145 -403 -50 -641 -152 -1086 -463 -502 -352
-630 -426 -894 -514 -320 -107 -841 -173 -1548 -196 l-132 -5 -36 55 c-68 102
-162 142 -356 150 -121 5 -339 -10 -383 -27 -26 -9 18 -16 167 -25 108 -7 187
-31 230 -71 28 -26 122 -192 114 -201 -10 -9 -27 8 -27 28 0 16 -7 19 -49 19
-33 0 -106 18 -217 55 -92 30 -183 57 -203 61 l-36 6 30 -26 c17 -14 59 -41
95 -60 36 -20 59 -36 53 -36 -9 0 -13 -18 -13 -55 l0 -55 -40 20 c-35 18 -40
25 -40 55 l0 35 -59 0 c-57 0 -66 4 -200 85 -78 46 -141 79 -141 72 0 -6 33
-44 72 -84 l72 -73 -95 0 -96 0 -108 105 c-60 58 -110 105 -113 105 -2 0 -2
-7 2 -15 8 -22 -16 -20 -209 20 -498 100 -969 264 -1325 460 -134 74 -326 204
-430 291 -96 80 -290 271 -290 285 0 12 147 22 229 15 77 -7 180 -22 215 -33
12 -3 17 -1 14 7 -6 18 -111 60 -192 76 -39 8 -142 17 -229 21 -139 5 -162 9
-190 27 -22 15 -33 31 -35 53 -6 61 48 83 204 83 157 0 277 -28 418 -96 79
-38 101 -42 115 -17 20 36 -69 165 -171 250 -110 91 -260 144 -450 159 -90 7
-128 28 -128 73 0 35 30 74 69 91 36 14 116 -2 261 -53 161 -56 308 -147 410
-253 53 -55 61 -61 56 -37 -13 53 -71 135 -146 207 -59 56 -99 84 -180 124
-58 29 -113 52 -124 52 -10 0 38 28 106 63 130 66 251 145 353 230 33 28 182
172 330 322 276 277 397 381 598 512 342 223 709 370 1147 458 63 13 122 24
131 24 9 1 31 -18 50 -41z m2051 8 c168 -44 204 -59 211 -88 3 -13 9 -62 12
-109 l7 -87 -45 -31 -46 -31 -80 57 c-44 32 -80 61 -81 64 0 4 25 24 55 44 30
21 55 40 55 42 0 5 -69 -32 -104 -56 l-29 -19 -48 31 c-46 30 -49 35 -50 77
-2 56 -7 111 -14 128 -7 18 10 16 157 -22z m-1136 -97 c30 -17 54 -33 54 -37
0 -3 -23 -30 -52 -59 l-52 -53 -18 73 c-29 122 -23 129 68 76z m-360 -40 l83
-51 -67 -74 c-36 -41 -69 -74 -71 -74 -9 0 -171 85 -171 90 0 11 123 160 133
160 5 0 47 -23 93 -51z m1282 -92 c3 -96 2 -103 -18 -115 -20 -12 -30 -8 -110
45 l-88 57 92 73 c115 90 120 88 124 -60z m4160 86 c26 -41 62 -137 62 -165 0
-4 -6 -8 -12 -8 -22 0 -250 -115 -328 -165 -111 -71 -171 -119 -362 -291 -95
-86 -224 -197 -285 -247 -62 -50 -113 -95 -113 -99 0 -23 309 195 496 351 73
61 173 138 221 171 79 53 248 143 346 183 l37 16 0 -26 c0 -42 -27 -133 -68
-228 l-39 -90 -99 -69 c-54 -37 -144 -105 -199 -149 -125 -100 -257 -187 -402
-263 -61 -33 -110 -60 -109 -62 2 -1 66 24 143 56 148 63 288 140 394 218 57
42 186 130 215 147 6 3 -2 -43 -17 -103 -16 -60 -31 -139 -35 -176 l-7 -67
-72 -32 c-136 -62 -308 -127 -434 -162 -151 -43 -175 -58 -76 -49 136 14 360
68 495 121 35 14 67 25 71 25 4 0 10 -44 14 -97 3 -54 9 -108 12 -120 6 -26
25 -23 -307 -57 -135 -15 -262 -29 -282 -32 -35 -6 -37 -5 -43 22 -19 92 -32
128 -71 210 -81 170 -221 291 -427 369 l-59 22 194 195 c263 266 477 444 683
566 124 74 291 130 386 131 45 1 48 -1 77 -46z m-3525 -14 c120 -60 202 -108
273 -160 l52 -38 -14 -67 c-8 -37 -16 -70 -18 -72 -3 -2 -34 20 -69 50 l-65
53 31 28 32 28 -41 -21 -41 -22 -67 47 c-37 26 -69 45 -71 43 -3 -2 20 -26 50
-52 30 -26 55 -51 55 -55 0 -4 -38 -34 -86 -65 l-85 -57 -27 19 -26 20 -1 186
c0 102 3 186 8 186 4 0 53 -23 110 -51z m-976 -44 l62 -41 -72 -57 c-40 -31
-75 -53 -78 -49 -11 13 -41 192 -35 208 7 18 0 21 123 -61z m-722 8 c8 -38 5
-39 -35 -18 -36 19 -36 19 -8 45 25 23 33 18 43 -27z m326 -15 l81 -51 -69
-69 -69 -69 -77 48 c-42 26 -76 51 -74 55 5 15 111 138 119 138 5 0 45 -23 89
-52z m-941 -38 l41 -81 -27 -34 c-14 -19 -30 -35 -34 -35 -8 0 -152 60 -159
66 -8 8 115 164 130 164 5 0 27 -36 49 -80z m1790 38 l30 -22 -28 -18 c-38
-25 -42 -23 -42 22 0 22 2 40 5 40 3 0 19 -10 35 -22z m-1183 -60 c42 -21 38
-44 -18 -113 -29 -36 -54 -65 -56 -65 -11 0 -133 75 -133 82 0 4 27 39 61 78
l61 71 31 -21 c18 -12 42 -26 54 -32z m544 10 l5 -35 -33 20 c-32 19 -33 20
-17 38 24 26 38 19 45 -23z m766 -49 c60 -50 72 -64 61 -74 -7 -6 -43 -35 -81
-64 l-67 -52 -40 32 c-38 31 -40 35 -40 90 0 55 2 59 43 93 23 20 43 36 45 36
2 0 37 -28 79 -61z m-369 -42 l53 -38 -66 -55 c-37 -30 -68 -54 -71 -54 -8 0
-150 105 -153 114 -2 5 25 33 59 62 l63 53 31 -21 c17 -12 55 -39 84 -61z
m-1321 27 c43 -25 79 -47 81 -49 8 -7 -106 -142 -115 -137 -6 4 -25 49 -42
100 -24 72 -29 98 -21 113 6 10 13 19 15 19 2 0 39 -21 82 -46z m891 1 c47
-32 52 -39 52 -72 0 -31 -8 -46 -46 -84 l-47 -48 -74 50 -74 50 63 69 c35 38
65 69 68 70 3 0 29 -16 58 -35z m998 -82 c-3 -3 -19 5 -37 18 l-32 22 34 28
34 28 3 -46 c2 -25 1 -47 -2 -50z m-1303 -1 l38 -25 -53 -54 -53 -54 -6 48
c-4 26 -9 70 -12 96 l-5 48 27 -17 c14 -10 43 -29 64 -42z m-935 11 c42 -20
78 -37 80 -38 1 -2 -21 -41 -50 -87 l-53 -85 -80 36 c-44 19 -81 36 -83 37 -3
2 101 174 105 174 2 0 38 -17 81 -37z m2227 -112 c-31 -181 -32 -182 -145 -91
-47 37 -85 72 -85 77 0 5 31 37 70 70 l69 61 49 -40 c46 -39 48 -44 42 -77z
m-2031 93 c11 -28 7 -35 -14 -24 -11 6 -17 16 -14 25 8 20 20 19 28 -1z m585
-76 l1 -37 -35 20 c-19 12 -35 25 -35 31 0 5 12 25 28 44 l27 34 6 -27 c4 -16
7 -45 8 -65z m-225 41 c57 -36 64 -43 53 -58 -6 -9 -30 -40 -51 -68 l-40 -52
-48 27 c-98 55 -96 48 -38 125 28 37 53 67 55 67 2 0 33 -18 69 -41z m2166
-104 c0 -25 -31 -61 -84 -99 l-66 -47 -85 77 c-69 63 -83 80 -73 90 7 7 44 37
82 68 l70 55 78 -71 c43 -38 78 -72 78 -73z m302 -10 c73 -60 146 -119 162
-131 l28 -20 -35 -77 c-20 -43 -42 -80 -51 -83 -9 -4 -39 20 -85 68 l-70 73
42 38 42 38 -42 -25 c-23 -14 -46 -27 -51 -28 -5 -2 -44 30 -88 71 l-79 73 35
31 c29 25 30 27 7 13 -16 -10 -30 -16 -33 -14 -2 2 0 20 5 39 5 19 12 47 15
62 l7 28 28 -23 c16 -13 89 -72 163 -133z m-1242 130 c9 -11 11 -35 6 -88 -13
-127 -8 -124 -88 -64 l-70 52 63 58 c35 31 66 57 70 57 4 0 12 -7 19 -15z
m-314 -47 c40 -29 73 -55 73 -58 -1 -14 -144 -127 -156 -123 -17 7 -19 233 -2
233 6 0 44 -24 85 -52z m-1281 -11 c35 -20 41 -29 52 -77 12 -54 11 -56 -19
-102 -16 -27 -32 -48 -34 -48 -11 0 -154 86 -154 92 0 9 67 116 88 141 19 21
19 21 67 -6z m901 -23 c35 -25 64 -48 64 -52 0 -9 -113 -122 -123 -122 -4 0
-37 20 -72 43 l-65 44 58 66 c31 37 61 66 66 67 5 0 37 -20 72 -46z m808 -3
c16 -17 15 -19 -9 -35 l-25 -16 0 35 c0 39 9 44 34 16z m-594 -31 c0 -44 -5
-47 -39 -24 l-22 16 22 24 c31 33 39 30 39 -16z m-570 -12 c36 -24 50 -39 50
-57 0 -24 -73 -121 -92 -121 -19 0 -118 75 -114 87 7 19 90 123 99 123 4 0 30
-15 57 -32z m1585 1 c-10 -15 -25 -10 -19 6 4 8 10 12 15 9 5 -3 7 -10 4 -15z
m-2441 -40 c42 -22 76 -43 76 -45 0 -4 -89 -173 -96 -182 -3 -4 -154 78 -154
84 0 8 90 184 94 184 3 0 39 -18 80 -41z m2169 -39 c42 -34 77 -63 77 -64 0
-1 -31 -26 -69 -55 l-70 -53 -70 57 c-47 38 -71 64 -71 78 0 27 98 121 114
109 6 -5 46 -37 89 -72z m-345 -18 l33 -27 -70 -63 c-38 -34 -73 -62 -77 -62
-4 0 -38 24 -76 52 l-69 53 73 66 73 67 40 -29 c22 -16 55 -42 73 -57z m820
-78 c-13 -12 -144 -104 -150 -104 -3 0 -30 21 -58 48 l-52 47 11 55 c10 44 19
60 48 82 l36 28 84 -77 c46 -42 82 -77 81 -79z m-2088 93 c25 -17 46 -31 48
-33 2 -1 -22 -37 -52 -79 -34 -47 -58 -72 -60 -64 -13 37 -37 201 -32 214 7
18 20 13 96 -38z m817 12 l45 -31 -4 -59 c-4 -53 -8 -63 -38 -88 l-34 -28 -66
50 c-36 28 -67 52 -69 54 -3 2 110 131 117 132 2 1 24 -13 49 -30z m1601 -52
l62 -63 -85 -59 c-74 -50 -88 -57 -99 -44 -12 12 -9 30 21 122 20 59 36 107
37 107 1 0 30 -28 64 -63z m-1868 -56 c0 -5 -27 -37 -60 -72 l-59 -64 -1 113
0 113 60 -41 c33 -22 60 -44 60 -49z m1694 37 c-8 -24 -17 -49 -19 -57 -4 -11
-11 -9 -30 9 l-24 22 40 34 c23 19 43 34 45 34 1 0 -4 -19 -12 -42z m-2597
-14 c40 -25 73 -50 73 -55 0 -5 -23 -50 -51 -99 l-51 -90 -27 19 c-14 10 -52
34 -83 54 l-58 36 58 91 c31 49 59 90 61 90 2 0 37 -21 78 -46z m199 -61 c-1
-1 -12 5 -25 13 -22 16 -22 17 -4 36 18 20 18 19 25 -13 3 -19 5 -35 4 -36z
m318 25 c35 -26 53 -45 47 -52 -75 -98 -114 -146 -117 -146 -13 0 -104 76
-102 85 4 15 102 154 109 155 4 0 32 -19 63 -42z m182 -46 c-4 -3 -11 -1 -17
5 -8 8 -7 18 3 34 l13 24 3 -28 c2 -16 1 -31 -2 -35z m1394 41 c0 -35 -34
-183 -42 -183 -11 0 -98 80 -98 90 0 9 121 109 133 110 4 0 7 -8 7 -17z m-705
-45 c36 -28 65 -54 65 -58 0 -3 -28 -34 -63 -68 l-63 -63 -24 26 c-22 24 -24
33 -21 103 2 52 8 83 18 95 9 9 18 17 20 17 2 0 33 -23 68 -52z m265 -29 c-11
-41 -20 -78 -20 -82 0 -5 -18 7 -39 25 l-39 33 54 53 c30 30 57 52 59 50 3 -3
-4 -38 -15 -79z m-585 -23 l30 -25 -66 -67 -67 -66 -65 52 -66 53 62 68 61 67
41 -29 c22 -16 54 -40 70 -53z m745 44 c28 -25 41 -43 35 -48 -57 -53 -139
-122 -145 -122 -4 0 5 47 19 105 14 57 31 105 36 104 6 0 30 -18 55 -39z m705
8 l35 -33 -35 -79 c-19 -44 -39 -84 -45 -90 -7 -7 -30 9 -76 55 l-66 66 68 56
c38 31 72 57 77 57 4 0 23 -15 42 -32z m403 -37 c34 -38 62 -72 62 -75 0 -3
-36 -32 -79 -65 l-80 -61 -64 72 -65 71 76 64 c42 35 79 63 82 63 3 0 34 -31
68 -69z m338 -23 c32 -39 62 -77 67 -84 5 -9 -15 -29 -65 -64 l-72 -51 -38 43
c-20 24 -37 48 -38 53 -1 13 73 174 81 175 3 0 32 -32 65 -72z m-3090 35 c37
-24 44 -34 50 -69 5 -37 1 -51 -33 -108 -21 -36 -42 -66 -46 -66 -5 0 -37 21
-73 46 l-65 46 18 28 c79 122 99 150 102 150 2 0 23 -12 47 -27z m2066 -63
c-80 -64 -102 -80 -102 -72 0 5 7 42 16 82 l17 72 38 -38 c22 -21 36 -41 31
-44z m-1550 -46 c-2 -49 -8 -64 -38 -101 l-36 -43 -26 20 c-15 11 -41 32 -59
47 l-32 28 66 78 65 78 32 -25 c29 -23 31 -28 28 -82z m2735 19 l82 -49 -18
-27 -17 -26 -95 96 c-51 53 -80 87 -64 76 17 -12 67 -43 112 -70z m-1446 -35
c51 -47 67 -68 63 -81 -6 -18 -39 -51 -109 -109 l-30 -25 -75 69 -75 70 75 68
c41 38 76 69 78 70 2 0 35 -28 73 -62z m-389 -10 l26 -23 -24 -59 c-13 -33
-34 -70 -46 -83 l-21 -22 -25 20 c-14 10 -45 38 -70 60 l-44 41 63 64 62 63
26 -19 c14 -11 38 -30 53 -42z m-409 28 c14 -11 17 -29 17 -101 0 -77 -3 -92
-21 -112 l-22 -22 -31 26 c-17 14 -48 41 -69 60 l-38 34 68 64 c37 35 70 64
73 64 3 0 13 -6 23 -13z m1175 -49 l63 -64 -71 -58 -71 -58 -60 59 c-32 32
-59 62 -59 66 0 6 127 118 133 118 2 0 31 -29 65 -63z m-1987 13 l46 -35 -35
-53 c-40 -60 -44 -58 -56 38 -4 30 -10 63 -13 74 -6 23 1 20 58 -24z m2354
-34 c32 -35 57 -67 56 -71 0 -6 -144 -126 -146 -122 -1 1 -25 27 -54 59 l-52
56 20 40 c20 39 85 101 108 102 6 0 37 -29 68 -64z m264 -55 c-24 -56 -46
-101 -49 -101 -3 0 -21 19 -39 42 l-35 41 75 68 c42 39 78 64 83 59 5 -5 -10
-52 -35 -109z m-2064 2 c0 -6 -33 -45 -73 -88 l-73 -78 -25 24 c-19 18 -24 29
-19 49 4 14 13 56 22 95 8 38 21 78 30 87 15 17 19 15 77 -31 34 -27 61 -53
61 -58z m2495 5 l20 -26 -56 -71 c-30 -39 -58 -71 -62 -71 -4 1 -28 30 -54 65
l-47 64 67 61 67 62 23 -29 c13 -15 32 -40 42 -55z m-3164 -41 c6 -40 11 -73
10 -74 0 -1 -21 15 -45 36 l-43 37 28 41 c16 22 31 39 34 36 3 -2 10 -37 16
-76z m2867 29 l26 -33 -60 -47 c-34 -26 -63 -46 -65 -43 -6 6 57 157 66 157 4
0 19 -15 33 -34z m-2600 -22 l56 -46 -67 -88 -67 -87 -40 32 c-23 19 -43 45
-47 64 -8 28 -3 38 44 101 29 38 56 69 59 69 4 1 32 -20 62 -45z m878 -30 c93
-79 91 -66 20 -138 -53 -54 -68 -63 -83 -55 -27 14 -47 60 -54 124 -6 52 -5
58 21 85 16 17 32 30 35 30 3 0 31 -21 61 -46z m386 -15 c38 -34 69 -64 71
-68 1 -3 -29 -38 -68 -76 l-70 -70 -60 60 -60 60 22 45 c21 45 75 110 90 110
4 0 38 -28 75 -61z m-738 -16 l69 -57 -81 -88 c-44 -49 -84 -87 -88 -86 -12 5
-129 119 -129 126 0 6 151 162 158 162 1 0 34 -26 71 -57z m1136 -98 c-27 -25
-53 -45 -56 -45 -17 0 -28 178 -12 194 4 4 32 -18 63 -49 l55 -56 -50 -44z
m735 1 c0 -23 -12 -41 -57 -82 -32 -30 -63 -54 -69 -54 -11 0 -114 124 -113
137 0 4 33 36 72 70 l72 63 47 -53 c33 -36 47 -61 48 -81z m-367 66 l48 -49
-75 -67 -75 -67 -30 33 -29 33 30 40 c17 22 42 59 57 83 14 23 26 42 26 42 1
0 22 -22 48 -48z m688 -28 l42 -55 -39 -40 c-36 -38 -121 -96 -128 -88 -1 2
-23 31 -47 63 l-44 59 75 68 c53 48 78 65 87 58 6 -6 31 -35 54 -65z m-1197
-94 c5 -8 -16 9 -45 38 l-54 53 40 33 40 34 5 -71 c3 -40 10 -79 14 -87z m330
113 c-15 -21 -29 -40 -30 -42 -1 -1 -8 0 -15 5 -9 5 -1 17 27 41 21 18 41 33
43 33 2 0 -9 -17 -25 -37z m1182 -25 c27 -34 55 -70 62 -79 11 -16 3 -24 -73
-73 -47 -31 -87 -56 -89 -56 -2 0 -23 29 -46 65 l-43 66 29 32 c69 77 98 107
105 107 3 0 28 -28 55 -62z m-2921 33 c8 -14 -45 -136 -75 -173 l-27 -32 -30
25 -30 25 70 82 c69 81 80 91 92 73z m86 -110 c-10 -14 -28 -35 -40 -45 l-21
-19 16 39 c29 71 34 77 50 64 12 -11 11 -16 -5 -39z m498 -183 c-44 -48 -81
-88 -84 -88 -3 0 -38 34 -78 76 l-72 77 90 84 90 85 66 -73 67 -73 -79 -88z
m822 97 c0 -4 -32 -43 -72 -87 l-73 -81 -34 39 c-18 22 -50 59 -70 83 l-37 44
75 67 74 68 69 -63 c37 -35 68 -67 68 -70z m254 105 c0 -19 -62 -60 -89 -60
-17 1 -13 7 24 40 45 40 65 46 65 20z m-615 -104 c0 -6 -34 -45 -75 -86 l-75
-74 -65 64 -64 64 37 12 c22 8 57 34 87 67 l49 55 53 -45 c29 -25 53 -51 53
-57z m1011 42 c24 -29 50 -60 57 -69 10 -14 1 -26 -67 -87 l-79 -72 -56 75
c-31 41 -56 78 -55 82 0 9 138 123 148 123 4 0 27 -24 52 -52z m-1836 -24 c57
-49 64 -58 53 -72 -7 -10 -47 -54 -88 -100 l-75 -84 -67 74 -68 73 82 82 c46
46 86 83 90 83 4 0 37 -25 73 -56z m2185 -4 c24 -31 28 -40 15 -40 -23 0 -65
45 -65 70 0 26 10 20 50 -30z m-647 2 l27 -28 -83 -82 -82 -82 -67 78 c-36 42
-65 78 -63 80 1 2 23 -2 48 -9 56 -14 97 -2 148 41 18 16 37 29 40 30 3 0 17
-13 32 -28z m987 -29 c22 -31 39 -59 38 -62 -2 -3 -38 -39 -80 -79 l-77 -74
-47 71 c-26 39 -45 72 -43 74 2 1 22 15 45 30 22 15 55 43 74 62 19 19 37 35
41 35 5 0 26 -26 49 -57z m333 -30 c26 -34 47 -65 47 -70 0 -5 -15 -17 -34
-25 -18 -9 -59 -37 -91 -63 -31 -26 -60 -43 -64 -38 -5 4 -24 38 -45 75 l-36
67 82 65 c46 35 86 61 89 58 3 -4 27 -35 52 -69z m-757 -14 c8 -9 32 -24 53
-33 l38 -18 -59 -56 c-36 -34 -62 -52 -66 -46 -4 6 -27 42 -52 79 l-44 68 43
39 44 38 14 -27 c8 -16 21 -35 29 -44z m-1882 -210 l-44 -55 -67 7 c-38 5 -90
8 -118 9 -41 0 -53 5 -68 26 l-19 25 98 93 99 93 81 -71 81 -71 -43 -56z
m4702 -84 c13 -55 23 -103 24 -107 0 -10 -245 -10 -488 -1 l-181 6 -6 56 c-3
31 -8 75 -11 98 l-5 43 308 3 c169 1 314 2 322 2 10 0 22 -31 37 -100z m-5006
60 c11 -13 7 -15 -25 -15 -32 0 -36 2 -25 15 7 8 18 15 25 15 7 0 18 -7 25
-15z m315 -120 c244 -37 545 -129 735 -225 58 -29 59 -30 50 -61 -73 -253
-673 -443 -1135 -360 -249 45 -502 103 -552 127 -113 54 -202 166 -189 237 9
51 73 126 140 166 98 59 268 111 428 131 105 13 394 5 523 -15z m4145 -79 c78
-12 323 -35 442 -42 69 -4 132 -10 138 -14 11 -7 64 -239 57 -246 -3 -4 -564
110 -667 135 -41 10 -75 23 -74 29 1 7 2 44 3 82 l1 71 33 -5 c17 -3 48 -7 67
-10z m-7984 -67 c72 -35 220 -152 169 -133 -11 4 -60 18 -110 32 -62 17 -94
31 -105 46 -8 11 -32 40 -54 64 l-40 43 30 -6 c16 -4 65 -25 110 -46z m8079
-167 c99 -33 266 -81 371 -108 l192 -49 11 -83 c7 -46 15 -128 18 -184 l6
-100 -24 7 c-55 17 -272 129 -390 202 -69 43 -196 112 -282 153 -120 58 -155
78 -150 90 4 8 16 43 27 78 11 34 25 60 31 58 5 -3 91 -31 190 -64z m-170
-154 c87 -50 247 -153 427 -276 48 -33 144 -87 212 -121 l124 -61 -13 -53 c-7
-28 -17 -63 -23 -77 -12 -30 -57 -80 -72 -80 -16 0 -123 55 -225 116 -49 29
-155 103 -235 164 -80 61 -206 156 -280 212 -74 55 -137 103 -140 106 -5 4
120 121 130 122 2 0 45 -23 95 -52z m-133 -175 c238 -224 425 -381 536 -450
40 -25 70 -48 68 -51 -8 -7 -119 35 -201 76 -147 73 -330 214 -421 323 -67 79
-116 189 -84 189 5 0 51 -39 102 -87z m-1896 -755 c11 -13 33 -42 49 -66 16
-24 66 -78 111 -121 95 -90 214 -156 304 -167 32 -4 71 -18 94 -33 l38 -25
-38 -17 c-78 -33 -82 -33 -86 -2 l-3 28 -170 0 c-168 0 -170 0 -173 -22 -4
-27 -30 -33 -162 -36 -86 -2 -101 1 -160 27 l-65 29 -250 4 c-182 3 -265 9
-305 20 -65 18 -65 18 97 74 98 34 126 40 163 34 233 -33 660 -50 660 -25 0 6
-6 10 -12 10 -113 0 -545 52 -575 69 -10 5 -7 11 13 20 15 7 71 39 125 72 l98
61 107 -11 c120 -12 190 -14 181 -5 -3 4 -47 15 -97 25 -125 26 -133 31 -84
57 54 29 115 29 140 0z m-885 -439 l59 -22 0 -92 c0 -105 8 -100 -91 -69 -52
17 -74 50 -74 115 0 32 27 89 42 89 3 0 32 -10 64 -21z m-1831 -68 c0 -24 -8
-48 -20 -62 l-19 -24 -1 63 c0 55 2 62 20 62 17 0 20 -7 20 -39z m2840 -19 l0
-58 -67 -18 c-47 -12 -69 -14 -71 -7 -2 6 -18 33 -36 59 l-31 47 95 16 c52 9
98 17 103 18 4 0 7 -25 7 -57z m-3220 -76 c0 -2 -18 1 -40 6 -23 6 -40 16 -40
24 0 11 9 10 40 -6 22 -11 40 -22 40 -24z m1750 -531 c17 -203 34 -391 37
-417 l6 -48 -83 0 -82 0 6 53 c3 28 17 223 32 432 14 209 28 387 31 395 12 32
23 -56 53 -415z m2380 411 c0 -8 16 -194 35 -413 19 -219 35 -413 35 -430 l0
-33 -75 0 -75 0 0 38 c0 20 14 217 30 437 16 220 30 403 30 408 0 4 5 7 10 7
6 0 10 -6 10 -14z m-1356 -97 c12 -61 7 -228 -9 -265 -16 -38 -62 -64 -115
-64 l-30 0 0 180 0 180 74 0 74 0 6 -31z"/>
<path d="M4960 10537 c0 -13 133 -205 207 -297 37 -46 116 -135 174 -196 115
-119 144 -165 160 -248 20 -109 -36 -265 -132 -370 l-46 -50 5 75 c2 41 -1
115 -7 165 -23 170 -80 287 -189 388 -132 123 -502 446 -502 438 0 -16 210
-252 360 -405 127 -129 161 -170 188 -225 113 -237 67 -650 -126 -1102 -53
-126 -92 -187 -167 -261 -170 -169 -495 -246 -795 -189 -80 15 -72 4 12 -15
139 -31 230 -38 350 -27 148 15 214 32 325 88 103 51 204 140 265 234 82 126
203 437 247 633 10 49 21 89 23 91 191 119 309 343 279 529 -20 124 -50 167
-234 335 -112 103 -244 241 -370 387 -15 17 -27 26 -27 22z"/>
<path d="M3852 9926 c-170 -56 -249 -245 -168 -405 68 -133 200 -193 338 -155
52 15 73 28 120 74 68 68 94 138 85 230 -16 182 -205 311 -375 256z m204 -101
c128 -80 131 -268 6 -359 -40 -28 -51 -31 -115 -31 -61 0 -78 5 -113 27 -79
51 -109 112 -102 209 12 159 183 240 324 154z"/>
<path d="M3895 9793 c-55 -14 -105 -82 -105 -143 0 -83 69 -154 149 -154 95 0
155 66 148 160 -4 61 -28 97 -83 124 -39 19 -68 23 -109 13z"/>
<path d="M9600 8990 c-187 -34 -392 -116 -625 -250 -60 -35 -230 -141 -378
-237 -418 -270 -565 -352 -793 -444 -295 -118 -803 -209 -1168 -209 -71 0
-126 -3 -123 -6 13 -14 318 -22 467 -13 388 24 668 83 950 201 216 91 361 176
780 457 496 333 693 433 970 491 58 13 107 24 109 26 11 10 -94 1 -189 -16z"/>
<path d="M4725 8935 c-20 -95 -28 -122 -51 -168 -56 -110 -154 -186 -319 -247
-50 -18 -94 -37 -99 -42 -16 -14 106 -9 167 7 120 31 219 97 273 182 58 89 79
221 45 281 -8 14 -11 12 -16 -13z"/>
<path d="M8589 8729 c-266 -162 -792 -439 -996 -524 -153 -64 -119 -69 96 -14
304 77 660 268 904 484 89 79 111 105 89 105 -5 0 -47 -23 -93 -51z"/>
<path d="M6240 9228 c-187 -15 -510 -90 -510 -118 0 -6 1 -10 3 -10 1 0 40 7
87 15 251 45 677 58 930 30 150 -17 314 -46 434 -76 43 -11 80 -18 83 -16 7 8
-201 86 -299 112 -132 35 -184 44 -348 60 -159 16 -223 17 -380 3z"/>
<path d="M6000 9014 c-132 -12 -240 -27 -240 -35 0 -5 3 -9 8 -9 33 0 576 -32
682 -40 331 -26 406 -33 580 -56 219 -28 229 -29 170 -3 -98 44 -372 103 -600
129 -98 11 -520 21 -600 14z"/>
<path d="M5120 5757 c-196 -46 -289 -187 -290 -438 0 -105 18 -174 67 -258 14
-25 106 -127 203 -226 111 -115 184 -197 198 -226 44 -91 52 -222 17 -276 -11
-17 -25 -23 -51 -23 -80 0 -94 32 -94 211 l0 129 -170 0 -170 0 0 -148 c0
-346 98 -482 367 -513 325 -37 483 130 483 510 0 245 -44 324 -337 606 -147
141 -183 191 -183 256 0 66 53 103 111 78 34 -13 49 -56 49 -136 l0 -53 176 0
177 0 -6 93 c-13 219 -101 355 -260 402 -72 22 -219 28 -287 12z"/>
<path d="M6988 5760 c-51 -15 -94 -49 -118 -92 -20 -35 -25 -60 -28 -140 l-4
-98 -29 0 -29 0 0 -135 0 -135 30 0 30 0 0 -580 0 -580 175 0 175 0 0 575 0
575 35 0 35 0 0 140 0 140 -35 0 c-34 0 -35 1 -35 39 0 43 19 66 50 58 19 -5
20 0 20 108 l0 112 -57 12 c-64 13 -175 13 -215 1z"/>
<path d="M7440 5595 l0 -155 -50 0 -51 0 3 -137 3 -138 47 -3 47 -3 3 -512 3
-512 25 -50 c15 -29 38 -57 57 -68 50 -29 141 -39 241 -27 133 16 122 3 122
141 l0 119 -38 0 c-21 0 -43 5 -50 12 -9 9 -12 124 -12 454 l0 443 48 3 47 3
3 138 3 137 -51 0 -50 0 0 155 0 155 -175 0 -175 0 0 -155z"/>
<path d="M6110 5496 c-115 -26 -192 -78 -250 -167 -71 -110 -73 -120 -77 -533
-5 -393 1 -483 38 -582 62 -165 253 -252 489 -224 144 18 250 80 303 178 58
106 62 140 62 567 0 418 -3 451 -52 549 -88 175 -296 261 -513 212z m180 -298
c19 -32 20 -52 20 -451 0 -354 -2 -422 -15 -447 -27 -51 -100 -53 -132 -3 -16
24 -18 63 -21 383 -5 512 1 550 89 550 34 0 42 -5 59 -32z"/>
<path d="M8510 4650 l0 -680 995 0 995 0 0 680 0 680 -995 0 -995 0 0 -680z"/>
</g>
</svg>
